<?xml version="1.0" encoding="UTF-8" standalone="no"?><svg xmlns="http://www.w3.org/2000/svg" xmlns:xlink="http://www.w3.org/1999/xlink" contentStyleType="text/css" height="1154px" preserveAspectRatio="none" style="width:2559px;height:1154px;background:#FFFFFF;" version="1.1" viewBox="0 0 2559 1154" width="2559px" zoomAndPan="magnify"><defs/><g><!--MD5=[b64109e72e4463467cc7b8a57e373e25]
cluster Zillow & HMDA Merge--><g id="cluster_Zillow &amp; HMDA Merge"><rect fill="none" height="1141" rx="2.5" ry="2.5" style="stroke:#181818;stroke-width:1.0;" width="2546" x="7" y="7"/><text fill="#000000" font-family="sans-serif" font-size="14" font-weight="bold" lengthAdjust="spacing" textLength="159" x="1200.5" y="22.5352">Zillow &amp; HMDA Merge</text></g><!--MD5=[5751707d1aa5c3c33e8b7180d671e1e5]
cluster Census & HMDA Merge--><g id="cluster_Census &amp; HMDA Merge"><rect fill="none" height="937.5" rx="2.5" ry="2.5" style="stroke:#181818;stroke-width:1.0;" width="1756" x="773" y="50"/><text fill="#000000" font-family="sans-serif" font-size="14" font-weight="bold" lengthAdjust="spacing" textLength="166" x="1568" y="65.5352">Census &amp; HMDA Merge</text></g><!--MD5=[3e3023324389b85ca86376cd213a2f7a]
cluster Census Procedure--><g id="cluster_Census Procedure"><rect fill="none" height="390" rx="2.5" ry="2.5" style="stroke:#181818;stroke-width:1.0;" width="1240" x="1265" y="432"/><text fill="#000000" font-family="sans-serif" font-size="14" font-weight="bold" lengthAdjust="spacing" textLength="128" x="1821" y="447.5352">Census Procedure</text></g><!--MD5=[fb8eaa81dd228b3a5244dc024eb90f94]
cluster HMDA Procedure--><g id="cluster_HMDA Procedure"><rect fill="none" height="604.5" rx="2.5" ry="2.5" style="stroke:#181818;stroke-width:1.0;" width="444" x="797" y="93"/><text fill="#000000" font-family="sans-serif" font-size="14" font-weight="bold" lengthAdjust="spacing" textLength="121" x="958.5" y="108.5352">HMDA Procedure</text></g><!--MD5=[784bcb472ae43377a445bf58747e59c7]
cluster Zillow Procedure--><g id="cluster_Zillow Procedure"><rect fill="none" height="407" rx="2.5" ry="2.5" style="stroke:#181818;stroke-width:1.0;" width="718" x="31" y="582"/><text fill="#000000" font-family="sans-serif" font-size="14" font-weight="bold" lengthAdjust="spacing" textLength="121" x="329.5" y="597.5352">Zillow Procedure</text></g><g id="elem_m_zillow_hmda"><ellipse cx="770.1736" cy="1082.4347" fill="#F1F1F1" rx="235.1736" ry="49.4347" style="stroke:#181818;stroke-width:0.5;"/><text fill="#000000" font-family="sans-serif" font-size="14" lengthAdjust="spacing" textLength="166" x="687.1736" y="1069.2374">Merge Zillow with HMDA</text><text fill="#000000" font-family="sans-serif" font-size="14" lengthAdjust="spacing" textLength="4" x="768.1736" y="1085.7257"> </text><text fill="#000000" font-family="sans-serif" font-size="14" lengthAdjust="spacing" textLength="381" x="579.6736" y="1102.214">by: census_tract, activity_year, lendername, loanamount</text></g><g id="elem_m_hmda_census"><ellipse cx="1036.1904" cy="923.3381" fill="#F1F1F1" rx="227.1904" ry="47.8381" style="stroke:#181818;stroke-width:0.5;"/><text fill="#000000" font-family="sans-serif" font-size="14" lengthAdjust="spacing" textLength="362" x="855.1904" y="910.1408">Merge Census Tract Crosswalk &amp; HMDA 1994 - 2013</text><text fill="#000000" font-family="sans-serif" font-size="14" lengthAdjust="spacing" textLength="4" x="1034.1904" y="926.6291"> </text><text fill="#000000" font-family="sans-serif" font-size="14" lengthAdjust="spacing" textLength="109" x="981.6904" y="943.1174">by: census_tract</text></g><g id="elem_d_census_1990_2000"><ellipse cx="2298.9402" cy="504.888" fill="#F1F1F1" rx="177.4402" ry="37.888" style="stroke:#181818;stroke-width:0.5;"/><text fill="#000000" font-family="sans-serif" font-size="14" lengthAdjust="spacing" textLength="327" x="2135.4402" y="508.1791">Download 1990 - 2000 State Census Tract Data</text></g><g id="elem_d_census_2000_2010"><ellipse cx="1884.9402" cy="504.888" fill="#F1F1F1" rx="177.4402" ry="37.888" style="stroke:#181818;stroke-width:0.5;"/><text fill="#000000" font-family="sans-serif" font-size="14" lengthAdjust="spacing" textLength="327" x="1721.4402" y="508.1791">Download 2000 - 2010 State Census Tract Data</text></g><g id="elem_d_census_2010_2020"><ellipse cx="1470.9402" cy="504.888" fill="#F1F1F1" rx="177.4402" ry="37.888" style="stroke:#181818;stroke-width:0.5;"/><text fill="#000000" font-family="sans-serif" font-size="14" lengthAdjust="spacing" textLength="327" x="1307.4402" y="508.1791">Download 2010 - 2020 State Census Tract Data</text></g><g id="elem_mu_census_1990_2000"><ellipse cx="2299.1096" cy="643.3219" fill="#F1F1F1" rx="189.6096" ry="40.3219" style="stroke:#181818;stroke-width:0.5;"/><text fill="#000000" font-family="sans-serif" font-size="14" lengthAdjust="spacing" textLength="352" x="2123.1096" y="646.6129">Move &amp; Unzip 1990 - 2000 State Census Tract Data</text></g><g id="elem_mu_census_2000_2010"><ellipse cx="1885.1096" cy="643.3219" fill="#F1F1F1" rx="189.6096" ry="40.3219" style="stroke:#181818;stroke-width:0.5;"/><text fill="#000000" font-family="sans-serif" font-size="14" lengthAdjust="spacing" textLength="352" x="1709.1096" y="646.6129">Move &amp; Unzip 2000 - 2010 State Census Tract Data</text></g><g id="elem_mu_census_2010_2020"><ellipse cx="1471.1096" cy="643.3219" fill="#F1F1F1" rx="189.6096" ry="40.3219" style="stroke:#181818;stroke-width:0.5;"/><text fill="#000000" font-family="sans-serif" font-size="14" lengthAdjust="spacing" textLength="352" x="1295.1096" y="646.6129">Move &amp; Unzip 2010 - 2020 State Census Tract Data</text></g><g id="elem_c_census"><ellipse cx="1677.8447" cy="778.8689" fill="#F1F1F1" rx="122.3447" ry="26.8689" style="stroke:#181818;stroke-width:0.5;"/><text fill="#000000" font-family="sans-serif" font-size="14" lengthAdjust="spacing" textLength="212" x="1571.8447" y="782.1599">Create Census Tract Crosswalk</text></g><g id="elem_d_hmda_lar"><ellipse cx="1133.1645" cy="149.7329" fill="#F1F1F1" rx="91.6645" ry="20.7329" style="stroke:#181818;stroke-width:0.5;"/><text fill="#000000" font-family="sans-serif" font-size="14" lengthAdjust="spacing" textLength="145" x="1060.6645" y="153.0239">Download HMDA LAR</text></g><g id="elem_mu_lar"><ellipse cx="1121.0182" cy="250.9036" fill="#F1F1F1" rx="82.5182" ry="18.9036" style="stroke:#181818;stroke-width:0.5;"/><text fill="#000000" font-family="sans-serif" font-size="14" lengthAdjust="spacing" textLength="124" x="1059.0182" y="254.1947">Move &amp; Unzip LAR</text></g><g id="elem_z_hmda_lar"><ellipse cx="1056.8995" cy="369.0517" fill="#F1F1F1" rx="167.3995" ry="38.0517" style="stroke:#181818;stroke-width:0.5;"/><text fill="#000000" font-family="sans-serif" font-size="14" lengthAdjust="spacing" textLength="220" x="943.8995" y="356.581">Subset LAR for Actualized Loans</text><text fill="#000000" font-family="sans-serif" font-size="14" lengthAdjust="spacing" textLength="4" x="1051.8995" y="373.0693"> </text><text fill="#000000" font-family="sans-serif" font-size="14" lengthAdjust="spacing" textLength="111" x="998.3995" y="389.5576">by: action_taken</text></g><g id="elem_s_hmda_lar"><ellipse cx="1045.8234" cy="504.9769" fill="#F1F1F1" rx="104.8234" ry="37.9769" style="stroke:#181818;stroke-width:0.5;"/><text fill="#000000" font-family="sans-serif" font-size="14" lengthAdjust="spacing" textLength="132" x="979.8234" y="491.7797">Subset LAR to State</text><text fill="#000000" font-family="sans-serif" font-size="14" lengthAdjust="spacing" textLength="4" x="1043.8234" y="508.2679"> </text><text fill="#000000" font-family="sans-serif" font-size="14" lengthAdjust="spacing" textLength="109" x="991.3234" y="524.7562">by: census_tract</text></g><g id="elem_d_hmda_panel"><ellipse cx="910.0689" cy="149.7138" fill="#F1F1F1" rx="96.5689" ry="21.7138" style="stroke:#181818;stroke-width:0.5;"/><text fill="#000000" font-family="sans-serif" font-size="14" lengthAdjust="spacing" textLength="156" x="832.0689" y="153.0048">Download HMDA Panel</text></g><g id="elem_mu_panel"><ellipse cx="904.7698" cy="250.854" fill="#F1F1F1" rx="87.2698" ry="19.854" style="stroke:#181818;stroke-width:0.5;"/><text fill="#000000" font-family="sans-serif" font-size="14" lengthAdjust="spacing" textLength="135" x="837.2698" y="254.145">Move &amp; Unzip Panel</text></g><g id="elem_m_panel_lar"><ellipse cx="1036.001" cy="643.4769" fill="#F1F1F1" rx="122.501" ry="37.9769" style="stroke:#181818;stroke-width:0.5;"/><text fill="#000000" font-family="sans-serif" font-size="14" lengthAdjust="spacing" textLength="128" x="972.001" y="630.2797">Merge Panel &amp; LAR</text><text fill="#000000" font-family="sans-serif" font-size="14" lengthAdjust="spacing" textLength="4" x="1034.001" y="646.7679"> </text><text fill="#000000" font-family="sans-serif" font-size="14" lengthAdjust="spacing" textLength="157" x="957.501" y="663.2562">by: lei and activity_year</text></g><g id="elem_d_zillow"><ellipse cx="389.9067" cy="643.6813" fill="#F1F1F1" rx="121.4067" ry="26.6813" style="stroke:#181818;stroke-width:0.5;"/><text fill="#000000" font-family="sans-serif" font-size="14" lengthAdjust="spacing" textLength="210" x="284.9067" y="646.9724">Download Zillow Data for State</text></g><g id="elem_mt_zillow"><ellipse cx="209.9213" cy="778.8843" fill="#F1F1F1" rx="162.4213" ry="34.8843" style="stroke:#181818;stroke-width:0.5;"/><text fill="#000000" font-family="sans-serif" font-size="14" lengthAdjust="spacing" textLength="296" x="61.9213" y="782.1753">Move &amp; Unzip Zillow State Transaction Data</text></g><g id="elem_ma_zillow"><ellipse cx="569.9213" cy="778.8843" fill="#F1F1F1" rx="162.4213" ry="34.8843" style="stroke:#181818;stroke-width:0.5;"/><text fill="#000000" font-family="sans-serif" font-size="14" lengthAdjust="spacing" textLength="296" x="421.9213" y="782.1753">Move &amp; Unzip Zillow State Assessment Data</text></g><g id="elem_m_zillow"><ellipse cx="503.7627" cy="923.7194" fill="#F1F1F1" rx="228.2627" ry="49.7194" style="stroke:#181818;stroke-width:0.5;"/><text fill="#000000" font-family="sans-serif" font-size="14" lengthAdjust="spacing" textLength="306" x="347.7627" y="903.0046">Merge Zillow Assessment &amp; Transaction Data</text><text fill="#000000" font-family="sans-serif" font-size="14" lengthAdjust="spacing" textLength="4" x="498.7627" y="919.4929"> </text><text fill="#000000" font-family="sans-serif" font-size="14" lengthAdjust="spacing" textLength="292" x="356.7627" y="935.9812">by: propertyfullstreetaddress, propertycity,</text><text fill="#000000" font-family="sans-serif" font-size="14" lengthAdjust="spacing" textLength="265" x="368.2627" y="952.4694">propertyzip, propertyunitnumber, year</text></g><!--MD5=[c40ddd3d793aba8973acec2082423ab3]
link d_census_1990_2000 to mu_census_1990_2000--><g id="link_d_census_1990_2000_mu_census_1990_2000"><path d="M2299,543.3 C2299,559.75 2299,579.24 2299,596.58 " fill="none" id="d_census_1990_2000-to-mu_census_1990_2000" style="stroke:#181818;stroke-width:1.0;"/><polygon fill="#181818" points="2299,601.34,2303,592.34,2299,596.34,2295,592.34,2299,601.34" style="stroke:#181818;stroke-width:1.0;"/></g><!--MD5=[79e8c716e0795963fb7c8653ab3ad42e]
link d_census_2000_2010 to mu_census_2000_2010--><g id="link_d_census_2000_2010_mu_census_2000_2010"><path d="M1885,543.3 C1885,559.75 1885,579.24 1885,596.58 " fill="none" id="d_census_2000_2010-to-mu_census_2000_2010" style="stroke:#181818;stroke-width:1.0;"/><polygon fill="#181818" points="1885,601.34,1889,592.34,1885,596.34,1881,592.34,1885,601.34" style="stroke:#181818;stroke-width:1.0;"/></g><!--MD5=[dec4000d84254b8c1ee2ef89aa1f75f6]
link d_census_2010_2020 to mu_census_2010_2020--><g id="link_d_census_2010_2020_mu_census_2010_2020"><path d="M1471,543.3 C1471,559.75 1471,579.24 1471,596.58 " fill="none" id="d_census_2010_2020-to-mu_census_2010_2020" style="stroke:#181818;stroke-width:1.0;"/><polygon fill="#181818" points="1471,601.34,1475,592.34,1471,596.34,1467,592.34,1471,601.34" style="stroke:#181818;stroke-width:1.0;"/></g><!--MD5=[8e3d163ca0c5314f7aca63247575c6a9]
link mu_census_1990_2000 to c_census--><g id="link_mu_census_1990_2000_c_census"><path d="M2194.84,677.7 C2162.13,687.45 2125.74,697.6 2092,705.5 C1988.9,729.64 1869.65,749.71 1785.69,762.56 " fill="none" id="mu_census_1990_2000-to-c_census" style="stroke:#181818;stroke-width:1.0;"/><polygon fill="#181818" points="1780.95,763.29,1790.4519,765.8812,1785.8924,762.5329,1789.2406,757.9734,1780.95,763.29" style="stroke:#181818;stroke-width:1.0;"/></g><!--MD5=[fa53f6ba9adb11943f00f56bb6f11738]
link mu_census_2000_2010 to c_census--><g id="link_mu_census_2000_2010_c_census"><path d="M1826.24,682.4 C1793.02,703.82 1752.18,730.16 1721.79,749.76 " fill="none" id="mu_census_2000_2010-to-c_census" style="stroke:#181818;stroke-width:1.0;"/><polygon fill="#181818" points="1717.9,752.27,1727.63,750.7445,1722.0994,749.5561,1723.2878,744.0255,1717.9,752.27" style="stroke:#181818;stroke-width:1.0;"/></g><!--MD5=[1e1f7d1638944fe7cb0cbb0d5fda3f9d]
link mu_census_2010_2020 to c_census--><g id="link_mu_census_2010_2020_c_census"><path d="M1529.76,682.4 C1562.98,703.82 1603.82,730.16 1634.21,749.76 " fill="none" id="mu_census_2010_2020-to-c_census" style="stroke:#181818;stroke-width:1.0;"/><polygon fill="#181818" points="1638.1,752.27,1632.7122,744.0255,1633.9006,749.5561,1628.37,750.7445,1638.1,752.27" style="stroke:#181818;stroke-width:1.0;"/></g><!--MD5=[82ed04ae1e6709c6a06c22cbe339cf7b]
link d_hmda_lar to mu_lar--><g id="link_d_hmda_lar_mu_lar"><path d="M1130.63,170.16 C1128.71,186.1 1125.99,208.64 1123.93,225.71 " fill="none" id="d_hmda_lar-to-mu_lar" style="stroke:#181818;stroke-width:1.0;"/><polygon fill="#181818" points="1123.39,230.22,1128.4425,221.7659,1123.9908,225.2562,1120.5004,220.8046,1123.39,230.22" style="stroke:#181818;stroke-width:1.0;"/></g><!--MD5=[b8cd4443b46c5cb1092a76d04da580a4]
link mu_lar to z_hmda_lar--><g id="link_mu_lar_z_hmda_lar"><path d="M1111,270.12 C1102.84,284.92 1090.97,306.42 1080.44,325.51 " fill="none" id="mu_lar-to-z_hmda_lar" style="stroke:#181818;stroke-width:1.0;"/><polygon fill="#181818" points="1078.25,329.49,1086.1026,323.5455,1080.6673,325.1132,1079.0996,319.6779,1078.25,329.49" style="stroke:#181818;stroke-width:1.0;"/></g><!--MD5=[122fc0afba4b417dc8c1bf7dca150286]
link z_hmda_lar to s_hmda_lar--><g id="link_z_hmda_lar_s_hmda_lar"><path d="M1053.94,407.33 C1052.58,423.88 1050.97,443.46 1049.56,460.66 " fill="none" id="z_hmda_lar-to-s_hmda_lar" style="stroke:#181818;stroke-width:1.0;"/><polygon fill="#181818" points="1049.17,465.37,1053.9036,456.7333,1049.5852,460.3873,1045.9312,456.0689,1049.17,465.37" style="stroke:#181818;stroke-width:1.0;"/></g><!--MD5=[1be37b460cd752320639e0e70e38c607]
link d_hmda_panel to mu_panel--><g id="link_d_hmda_panel_mu_panel"><path d="M908.96,171.12 C908.19,186.59 907.12,207.88 906.28,224.44 " fill="none" id="d_hmda_panel-to-mu_panel" style="stroke:#181818;stroke-width:1.0;"/><polygon fill="#181818" points="906.04,229.25,910.4731,220.4553,906.2833,224.2559,902.4826,220.066,906.04,229.25" style="stroke:#181818;stroke-width:1.0;"/></g><!--MD5=[0846be2224d3ee55678b8d8697156009]
link mu_panel to m_panel_lar--><g id="link_mu_panel_m_panel_lar"><path d="M894.48,271.12 C886.54,286.71 876.29,309.58 872,331 C865.36,364.12 865.87,373.78 872,407 C883.75,470.64 887.2,489.77 924,543 C939.95,566.08 962.34,587.37 982.91,604.29 " fill="none" id="mu_panel-to-m_panel_lar" style="stroke:#181818;stroke-width:1.0;"/><polygon fill="#181818" points="986.65,607.31,982.1873,598.5302,982.7694,604.157,977.1426,604.7391,986.65,607.31" style="stroke:#181818;stroke-width:1.0;"/></g><!--MD5=[c4a60a84ad438adafbeba011f72e8f3c]
link s_hmda_lar to m_panel_lar--><g id="link_s_hmda_lar_m_panel_lar"><path d="M1043.27,543.3 C1042.01,560.45 1040.51,580.92 1039.2,598.79 " fill="none" id="s_hmda_lar-to-m_panel_lar" style="stroke:#181818;stroke-width:1.0;"/><polygon fill="#181818" points="1038.84,603.74,1043.4976,595.062,1039.2115,598.7538,1035.5197,594.4677,1038.84,603.74" style="stroke:#181818;stroke-width:1.0;"/></g><!--MD5=[13cdececda3abc77a40c31e2ad8af026]
link m_panel_lar to m_hmda_census--><g id="link_m_panel_lar_m_hmda_census"><path d="M1036,681.99 C1036,730.23 1036,814.32 1036,869.19 " fill="none" id="m_panel_lar-to-m_hmda_census" style="stroke:#181818;stroke-width:1.0;"/><polygon fill="#181818" points="1036,873.89,1040,864.89,1036,868.89,1032,864.89,1036,873.89" style="stroke:#181818;stroke-width:1.0;"/></g><!--MD5=[10ea1148294d6eea777292287f1e1ece]
link c_census to m_hmda_census--><g id="link_c_census_m_hmda_census"><path d="M1625.17,803.7 C1602.93,812.96 1576.56,823 1552,830 C1448.69,859.44 1330.95,881.39 1234.05,896.51 " fill="none" id="c_census-to-m_hmda_census" style="stroke:#181818;stroke-width:1.0;"/><polygon fill="#181818" points="1229.2,897.26,1238.7103,899.8201,1234.1399,896.4868,1237.4732,891.9164,1229.2,897.26" style="stroke:#181818;stroke-width:1.0;"/></g><!--MD5=[92a36a2cb10e9bf87218d024f1f3e8b9]
link d_zillow to mt_zillow--><g id="link_d_zillow_mt_zillow"><path d="M356.57,669.3 C329.25,689.55 290.26,718.48 259.35,741.4 " fill="none" id="d_zillow-to-mt_zillow" style="stroke:#181818;stroke-width:1.0;"/><polygon fill="#181818" points="255.68,744.12,265.2887,741.9584,259.692,741.136,260.5143,735.5393,255.68,744.12" style="stroke:#181818;stroke-width:1.0;"/></g><!--MD5=[5fe8e1c5f17ca5523ce1226f329466e3]
link d_zillow to ma_zillow--><g id="link_d_zillow_ma_zillow"><path d="M423.43,669.3 C450.75,689.55 489.74,718.48 520.65,741.4 " fill="none" id="d_zillow-to-ma_zillow" style="stroke:#181818;stroke-width:1.0;"/><polygon fill="#181818" points="524.32,744.12,519.4857,735.5393,520.308,741.136,514.7113,741.9584,524.32,744.12" style="stroke:#181818;stroke-width:1.0;"/></g><!--MD5=[eda79c0d66f640f2a2b9325611be5847]
link mt_zillow to m_zillow--><g id="link_mt_zillow_m_zillow"><path d="M274.88,811.45 C313.32,830.08 362.78,854.05 405.91,874.96 " fill="none" id="mt_zillow-to-m_zillow" style="stroke:#181818;stroke-width:1.0;"/><polygon fill="#181818" points="410.32,877.09,403.972,869.5598,405.8225,874.9055,400.4768,876.7559,410.32,877.09" style="stroke:#181818;stroke-width:1.0;"/></g><!--MD5=[874f61f88eb29116aa59bcb945b74ad8]
link ma_zillow to m_zillow--><g id="link_ma_zillow_m_zillow"><path d="M554.19,814.13 C546.69,830.32 537.55,850.07 529.13,868.24 " fill="none" id="ma_zillow-to-m_zillow" style="stroke:#181818;stroke-width:1.0;"/><polygon fill="#181818" points="527.18,872.45,534.5872,865.959,529.278,867.9115,527.3256,862.6022,527.18,872.45" style="stroke:#181818;stroke-width:1.0;"/></g><!--MD5=[ffeb5bb51c1af64ac135637acab610b0]
link m_zillow to m_zillow_hmda--><g id="link_m_zillow_m_zillow_hmda"><path d="M581.65,970.33 C614.55,989.75 652.94,1012.41 686.45,1032.19 " fill="none" id="m_zillow-to-m_zillow_hmda" style="stroke:#181818;stroke-width:1.0;"/><polygon fill="#181818" points="690.49,1034.57,684.7793,1026.5458,686.1862,1032.0249,680.7071,1033.4319,690.49,1034.57" style="stroke:#181818;stroke-width:1.0;"/></g><!--MD5=[bb41a29dbffd165f606306749309a2e7]
link m_hmda_census to m_zillow_hmda--><g id="link_m_hmda_census_m_zillow_hmda"><path d="M960.49,969.07 C927.1,988.78 887.73,1012.01 853.47,1032.23 " fill="none" id="m_hmda_census-to-m_zillow_hmda" style="stroke:#181818;stroke-width:1.0;"/><polygon fill="#181818" points="849.32,1034.68,859.1045,1033.5561,853.6275,1032.1412,855.0424,1026.6641,849.32,1034.68" style="stroke:#181818;stroke-width:1.0;"/></g><!--MD5=[dbeb4a1be7b8d4a996213eef3f7d6953]
@startuml "data flow"

top to bottom direction

rectangle "Zillow & HMDA Merge" {

rectangle "Census & HMDA Merge" {

rectangle "Census Procedure" {
(Download 1990 - 2000 State Census Tract Data) as d_census_1990_2000
(Download 2000 - 2010 State Census Tract Data) as d_census_2000_2010
(Download 2010 - 2020 State Census Tract Data) as d_census_2010_2020

(Move & Unzip 1990 - 2000 State Census Tract Data) as mu_census_1990_2000
(Move & Unzip 2000 - 2010 State Census Tract Data) as mu_census_2000_2010
(Move & Unzip 2010 - 2020 State Census Tract Data) as mu_census_2010_2020

(Create Census Tract Crosswalk) as c_census

d_census_1990_2000 - -> mu_census_1990_2000
d_census_2000_2010 - -> mu_census_2000_2010
d_census_2010_2020 - -> mu_census_2010_2020
mu_census_1990_2000 - -> c_census
mu_census_2000_2010 - -> c_census
mu_census_2010_2020 - -> c_census
}

rectangle "HMDA Procedure" {
(Download HMDA LAR) as d_hmda_lar
(Move & Unzip LAR) as mu_lar
(Subset LAR for Actualized Loans\n\nby: action_taken) as z_hmda_lar
(Subset LAR to State\n\nby: census_tract) as s_hmda_lar

(Download HMDA Panel) as d_hmda_panel
(Move & Unzip Panel) as mu_panel

(Merge Panel & LAR\n\nby: lei and activity_year) as m_panel_lar

d_hmda_lar - -> mu_lar
mu_lar - -> z_hmda_lar
z_hmda_lar - -> s_hmda_lar
d_hmda_panel - -> mu_panel
mu_panel - - - -> m_panel_lar
s_hmda_lar - -> m_panel_lar
}


(Merge Census Tract Crosswalk & HMDA 1994 - 2013\n\nby: census_tract) as m_hmda_census
m_panel_lar - - -> m_hmda_census
c_census - -> m_hmda_census
}

rectangle "Zillow Procedure" {
(Download Zillow Data for State) as d_zillow
(Move & Unzip Zillow State Transaction Data) as mt_zillow
(Move & Unzip Zillow State Assessment Data) as ma_zillow
(Merge Zillow Assessment & Transaction Data\n\n by: propertyfullstreetaddress, propertycity,\npropertyzip, propertyunitnumber, year) as m_zillow
d_zillow - -> mt_zillow
d_zillow - -> ma_zillow
mt_zillow - -> m_zillow
ma_zillow - -> m_zillow
}
(Merge Zillow with HMDA\n\nby: census_tract, activity_year, lendername, loanamount) as m_zillow_hmda

m_zillow - -> m_zillow_hmda
m_hmda_census - -> m_zillow_hmda

}
@enduml

PlantUML version 1.2022.7(Mon Aug 22 11:01:30 MDT 2022)
(GPL source distribution)
Java Runtime: OpenJDK Runtime Environment
JVM: OpenJDK 64-Bit Server VM
Default Encoding: UTF-8
Language: en
Country: US
--></g></svg>